<svg width="119" height="70" viewBox="0 0 119 70" fill="none" xmlns="http://www.w3.org/2000/svg">
<path d="M6 7.83699C6 6.2704 7.28158 4.90402 8.82559 5.169C9.15621 5.2247 9.15621 5.2247 9.49351 5.28153C9.72791 5.32241 9.96232 5.36329 10.2038 5.40541C10.4535 5.44795 10.7033 5.49036 10.953 5.53266C11.4802 5.62219 12.0073 5.71252 12.5342 5.80353C13.3596 5.9461 14.1854 6.08688 15.0112 6.2273C15.8267 6.36603 16.6421 6.5048 17.4575 6.6442C19.2579 6.95192 21.0596 7.25122 22.8636 7.54005C25.3809 7.94603 27.8943 8.37086 30.4073 8.79871C30.8608 8.87588 31.3144 8.95289 31.7679 9.02973C32.4022 9.13726 33.0363 9.24548 33.6705 9.35391C33.8637 9.38657 34.0569 9.41923 34.256 9.45289C34.4329 9.48329 34.6097 9.51369 34.7919 9.54501C34.9469 9.57143 35.1018 9.59785 35.2615 9.62507C35.7281 9.72113 36 10.1752 36 10.6516C36 27.5454 36 44.4459 36 61.7927C36 63.7215 34.6241 65.3794 32.7256 65.7204C31.6726 65.9095 30.6189 66.0941 29.5625 66.2702C29.3108 66.3124 29.0592 66.3546 28.8076 66.3969C28.1544 66.5064 27.5012 66.6156 26.8479 66.7247C26.3275 66.8117 25.807 66.8989 25.2866 66.9862C21.9497 67.5458 18.6116 68.099 15.2727 68.6482C14.1481 68.8334 13.0235 69.0188 11.8991 69.2046C11.5949 69.2548 11.2908 69.3049 10.9866 69.355C10.5327 69.4297 10.0788 69.5047 9.625 69.5798C9.48962 69.602 9.35424 69.6242 9.21476 69.6471C8.51099 69.7613 8.51099 69.7613 7.81889 69.923C6.82933 70.1096 6 69.1754 6 68.1684C6 48.2474 6 28.3105 6 7.83699ZM10.3602 8.74934C9.96133 8.67848 9.63636 9.01776 9.63636 9.42286C9.63636 27.1887 9.63636 44.9609 9.63636 63.2126C9.63636 64.7795 10.9814 66.0155 12.5325 65.7939C12.8208 65.7449 12.8208 65.7449 13.1148 65.6949C13.3181 65.6596 13.5214 65.6243 13.7308 65.588C13.9484 65.5508 14.166 65.5136 14.3902 65.4754C14.9763 65.3752 15.5622 65.2745 16.1481 65.1735C17.1291 65.0048 18.1104 64.8378 19.0916 64.6706C19.3396 64.6283 19.5876 64.586 19.8355 64.5437C22.2257 64.1356 24.6179 63.7386 27.0114 63.3477C27.1793 63.3203 27.3473 63.2928 27.5204 63.2646C28.834 63.05 28.834 63.05 29.35 62.9661C31.1956 62.6657 32.5455 61.065 32.5455 59.1952C32.5455 44.8844 32.5455 30.5489 32.5455 15.861C32.5455 13.9433 31.1854 12.2903 29.2995 11.9423C27.8171 11.6687 26.3336 11.4086 24.838 11.1757C20.9169 10.5645 17.0071 9.90009 13.0986 9.22357C12.8943 9.1883 12.69 9.15303 12.4795 9.11669C12.0944 9.0502 11.7095 8.98343 11.3245 8.91636C11.1547 8.88702 10.9848 8.85769 10.8098 8.82746C10.6615 8.80168 10.5131 8.7759 10.3602 8.74934Z" fill="url(#paint0_linear_222_3)"/>
<circle cx="26" cy="38" r="3" fill="#0F4031"/>
<rect x="57" y="19" width="2.8" height="30" rx="1.4" fill="#104635"/>
<path d="M82.9988 58.7695C82.7908 59.1337 79.7426 59.0433 79.2962 58.6599C78.9513 58.3642 76.7045 55.6288 67.4761 44.2708L66.3934 42.9364C65.9011 42.3296 65.6449 41.5651 65.6722 40.7842C65.7313 39.0909 67.0864 37.7297 68.7795 37.663L70.0881 37.6115C75.4542 37.4034 76.6918 37.0146 78.292 35.0458C79.5752 33.4713 79.9353 32.3076 79.948 29.7036C79.9556 27.7102 79.8618 27.179 79.2937 26.007C78.4949 24.3559 77.5337 23.3291 76.1745 22.6664C75.2767 22.2311 74.1153 22.1571 66.1574 22.0367L58.6078 21.9218C57.7899 21.9094 57.1214 21.2654 57.0786 20.4485C57.036 19.6636 57.6646 19.0056 58.4506 19.0123L66.3476 19.0794L73.5194 19.1424C74.9487 19.155 76.3538 19.5129 77.6149 20.1856C79.8922 21.4014 81.1196 22.7623 82.2202 25.2896C82.9354 26.9353 83.0089 27.3433 82.9937 29.7036C82.9709 33.3317 82.3521 34.9938 80.128 37.3952C77.7949 39.9143 76.4965 40.4291 72.0535 40.5934C70.2048 40.6646 68.6934 40.8042 68.6934 40.911C68.6934 41.0151 71.9419 45.0238 75.9133 49.8183C79.8846 54.6129 83.0723 58.6408 82.9988 58.7695ZM59.7566 45.1114L59.6962 57.7111C59.6931 58.3622 59.1889 58.9011 58.5393 58.9475C57.9079 58.9913 57.3069 58.9392 57.2079 58.8325C57.109 58.7257 57.0279 51.82 57.0279 43.4849V35.7536C57.0279 31.6561 60.3495 28.3345 64.447 28.3345H70.7448C71.5733 28.3345 72.2323 29.0293 72.1885 29.8566C72.1482 30.6176 71.5242 31.2167 70.7622 31.2259L66.1176 31.2817C62.6239 31.3238 59.8091 34.159 59.7924 37.6529L59.7566 45.1114Z" fill="#104635"/>
<path d="M92.16 51.51H103.36L97.76 37.125L92.16 51.51ZM104.2 53.75H91.355L89.325 59H86.49L96.15 34.5H99.37L109.03 59H106.23L104.2 53.75ZM115.116 41.57V59H112.491V41.57H115.116ZM111.896 35.725C111.896 34.605 112.701 33.765 113.786 33.765C114.871 33.765 115.711 34.605 115.711 35.725C115.711 36.845 114.871 37.65 113.786 37.65C112.701 37.65 111.896 36.845 111.896 35.725Z" fill="url(#paint1_linear_222_3)"/>
<rect width="3" height="69" rx="1.5" transform="matrix(-1 0 0 1 3 1)" fill="url(#paint2_linear_222_3)"/>
<rect y="3" width="3" height="41" rx="1.5" transform="rotate(-90 0 3)" fill="url(#paint3_linear_222_3)"/>
<rect x="39" y="34" width="3" height="10" rx="1.5" fill="url(#paint4_linear_222_3)"/>
<rect x="45" y="29" width="3" height="20" rx="1.5" fill="url(#paint5_linear_222_3)"/>
<rect x="51" y="24" width="3" height="30" rx="1.5" fill="url(#paint6_linear_222_3)"/>
<defs>
<linearGradient id="paint0_linear_222_3" x1="21" y1="5" x2="21" y2="70" gradientUnits="userSpaceOnUse">
<stop stop-color="#0F4031"/>
<stop offset="1" stop-color="#126F53"/>
</linearGradient>
<linearGradient id="paint1_linear_222_3" x1="102.5" y1="26" x2="102.5" y2="68" gradientUnits="userSpaceOnUse">
<stop stop-color="#1B3323"/>
<stop offset="1" stop-color="#0E6D2E"/>
</linearGradient>
<linearGradient id="paint2_linear_222_3" x1="1.5" y1="0" x2="1.5" y2="69" gradientUnits="userSpaceOnUse">
<stop stop-color="#0F4031"/>
<stop offset="1" stop-color="#126C50"/>
</linearGradient>
<linearGradient id="paint3_linear_222_3" x1="1.5" y1="3" x2="1.5" y2="44" gradientUnits="userSpaceOnUse">
<stop stop-color="#0F4031"/>
<stop offset="1" stop-color="#126C50"/>
</linearGradient>
<linearGradient id="paint4_linear_222_3" x1="40.5" y1="34" x2="40.5" y2="44" gradientUnits="userSpaceOnUse">
<stop stop-color="#0F4031"/>
<stop offset="1" stop-color="#126C50"/>
</linearGradient>
<linearGradient id="paint5_linear_222_3" x1="46.5" y1="29" x2="46.5" y2="49" gradientUnits="userSpaceOnUse">
<stop stop-color="#0F4031"/>
<stop offset="1" stop-color="#126C50"/>
</linearGradient>
<linearGradient id="paint6_linear_222_3" x1="52.5" y1="24" x2="52.5" y2="54" gradientUnits="userSpaceOnUse">
<stop stop-color="#0F4031"/>
<stop offset="1" stop-color="#126C50"/>
</linearGradient>
</defs>
</svg>
